<?xml version="1.0" encoding="iso-8859-1"?>
<!-- Generator: Adobe Illustrator 19.0.0, SVG Export Plug-In . SVG Version: 6.00 Build 0)  -->
<svg version="1.1" id="Layer_1" xmlns="http://www.w3.org/2000/svg" xmlns:xlink="http://www.w3.org/1999/xlink" x="0px" y="0px"
	 viewBox="0 0 512 512" style="enable-background:new 0 0 512 512;" xml:space="preserve">
<g>
	<g>
		<g>
			<path d="M373.316,386.149h-62.169v-2.799c58.036-40.784,68.051-94.33,69.604-116.329c0.004-0.065,0.009-0.128,0.012-0.192
				c0.139-2.991,0.222-6.053,0.247-9.102c0-0.093,0-0.185-0.003-0.278c-0.036-1.372-0.097-2.117-0.097-2.117
				c-0.019-0.234-0.047-0.466-0.085-0.693c0.073-1.664,0.11-3.241,0.11-4.784v-15.067v-0.143
				c18.392-4.925,31.928-21.894,31.928-41.479c0-19.585-13.536-36.556-31.928-41.481v-33.644c0-5.037-0.34-10.113-1.011-15.088
				c-0.22-1.624-0.482-3.239-0.772-4.847c-0.071-0.392-0.154-0.78-0.23-1.172c-0.241-1.262-0.499-2.52-0.783-3.77
				c-0.08-0.349-0.165-0.697-0.248-1.046c-0.322-1.36-0.668-2.712-1.04-4.057c-0.055-0.197-0.109-0.393-0.165-0.591
				c-4.634-16.406-12.969-31.655-24.595-44.851c-0.238-0.272-0.486-0.536-0.728-0.805c-0.609-0.678-1.208-1.362-1.835-2.03
				c-0.116-0.124-0.241-0.235-0.363-0.35c-2.721-2.878-5.581-5.652-8.609-8.283c-3.37-2.929-8.477-2.572-11.404,0.8
				c-2.929,3.371-2.571,8.475,0.8,11.404c3.324,2.889,6.429,5.965,9.321,9.19c0.213,0.238,0.432,0.472,0.643,0.711
				c9.95,11.303,17.192,24.483,21.205,38.586c0.044,0.156,0.087,0.313,0.131,0.469c0.326,1.167,0.624,2.341,0.905,3.52
				c0.069,0.292,0.141,0.582,0.208,0.875c0.247,1.081,0.468,2.169,0.677,3.258c0.064,0.33,0.135,0.659,0.194,0.99
				c0.25,1.382,0.474,2.769,0.663,4.163c0.149,1.105,0.277,2.216,0.388,3.332c0.04,0.401,0.066,0.804,0.101,1.206
				c0.063,0.715,0.125,1.429,0.171,2.145c0.005,0.081,0.008,0.162,0.012,0.242c-3.777-5.526-8.422-10.63-14.133-14.77
				c-14.789-10.721-33.559-12.936-55.79-6.586c-5.919,1.691-11.966,3.469-18.366,5.35c-40.979,12.042-91.385,26.857-129.053,23.667
				v-1.661c0-4.331,0.292-8.678,0.867-12.923c6.849-50.69,53.237-88.932,107.897-88.951c1.151,0,2.302,0.019,3.451,0.054
				c0.251,0.008,0.501,0.023,0.752,0.032c0.914,0.033,1.827,0.071,2.739,0.126c0.216,0.013,0.431,0.031,0.648,0.045
				c0.963,0.064,1.924,0.133,2.883,0.22c0.135,0.012,0.268,0.027,0.402,0.04c1.055,0.099,2.109,0.209,3.16,0.337
				c0.04,0.004,0.079,0.011,0.117,0.015c13.929,1.711,27.414,5.926,39.613,12.438c3.941,2.104,8.838,0.614,10.938-3.324
				c2.103-3.939,0.613-8.837-3.324-10.938c-9.73-5.193-20.171-9.096-30.989-11.654c-0.215-0.069-0.43-0.135-0.654-0.186
				c-4.465-1.03-9-1.816-13.576-2.376c-0.054-0.006-0.107-0.014-0.161-0.021c-1.196-0.144-2.395-0.273-3.597-0.385
				c-0.154-0.014-0.307-0.031-0.461-0.045c-1.098-0.099-2.199-0.181-3.302-0.252c-0.241-0.016-0.483-0.037-0.724-0.052
				c-1.049-0.063-2.1-0.107-3.152-0.146c-0.277-0.01-0.552-0.027-0.829-0.036C258.62,0.023,257.308,0,255.994,0
				c-62.719,0.023-115.992,44.284-123.92,102.953c-0.672,4.961-1.011,10.036-1.011,15.091v8.845v24.799
				c-18.392,4.925-31.929,21.895-31.929,41.481s13.537,36.556,31.929,41.48v0.143v15.067c0,1.552,0.036,3.131,0.11,4.785
				c-0.038,0.227-0.067,0.457-0.085,0.691c0,0-0.061,0.744-0.097,2.117c-0.003,0.091-0.003,0.181-0.003,0.272
				c0.023,3.044,0.105,6.109,0.247,9.11c0.002,0.064,0.006,0.126,0.011,0.19c0.158,2.246,0.404,4.812,0.777,7.65
				c3.319,25.247,16.739,72.115,68.827,108.69v2.787H138.68c-51.403,0-93.221,41.82-93.221,93.223v11.609
				c0,11.59,9.429,21.019,21.019,21.019h76.606c4.466,0,8.084-3.618,8.084-8.084c0-4.466-3.618-8.084-8.084-8.084H66.479
				c-2.674,0-4.851-2.176-4.851-4.851v-11.609c0-42.488,34.565-77.054,77.052-77.054h62.668c0.053,0.233,0.123,0.461,0.183,0.693
				c0.057,0.218,0.109,0.438,0.172,0.653c0.092,0.307,0.199,0.61,0.305,0.914c0.068,0.194,0.127,0.389,0.201,0.581
				c0.146,0.38,0.309,0.756,0.476,1.131c0.05,0.111,0.091,0.224,0.142,0.335c0.224,0.48,0.468,0.954,0.729,1.423
				c0.091,0.164,0.195,0.323,0.29,0.486c0.18,0.306,0.359,0.613,0.554,0.915c0.123,0.19,0.258,0.375,0.387,0.564
				c0.184,0.269,0.368,0.539,0.565,0.804c0.144,0.195,0.3,0.387,0.452,0.579c0.197,0.252,0.394,0.504,0.604,0.752
				c0.164,0.195,0.337,0.387,0.508,0.58c0.212,0.239,0.426,0.479,0.648,0.714c0.182,0.193,0.372,0.384,0.562,0.573
				c0.227,0.23,0.458,0.457,0.695,0.682c0.198,0.188,0.401,0.374,0.606,0.558c0.245,0.221,0.494,0.441,0.748,0.659
				c0.212,0.181,0.428,0.362,0.647,0.54c0.263,0.215,0.531,0.426,0.803,0.636c0.226,0.175,0.453,0.348,0.684,0.52
				c0.28,0.207,0.568,0.411,0.858,0.614c0.238,0.166,0.475,0.333,0.719,0.497c0.302,0.203,0.611,0.4,0.923,0.597
				c0.246,0.156,0.489,0.314,0.742,0.467c0.327,0.199,0.663,0.392,0.999,0.586c0.249,0.143,0.494,0.289,0.748,0.43
				c0.362,0.201,0.735,0.396,1.108,0.59c0.241,0.126,0.477,0.255,0.723,0.379c0.435,0.219,0.883,0.431,1.33,0.641
				c0.194,0.092,0.383,0.188,0.579,0.277c0.647,0.296,1.306,0.584,1.979,0.863c0.165,0.069,0.337,0.133,0.503,0.199
				c0.515,0.209,1.031,0.416,1.561,0.614c0.261,0.098,0.53,0.19,0.794,0.286c0.444,0.161,0.888,0.321,1.342,0.474
				c0.299,0.101,0.605,0.196,0.908,0.294c0.43,0.139,0.86,0.278,1.298,0.411c0.323,0.098,0.652,0.191,0.98,0.285
				c0.428,0.123,0.857,0.246,1.291,0.362c0.341,0.092,0.687,0.179,1.033,0.266c0.433,0.11,0.868,0.219,1.307,0.323
				c0.354,0.084,0.711,0.164,1.069,0.244c0.442,0.098,0.886,0.194,1.334,0.287c0.364,0.074,0.731,0.147,1.098,0.218
				c0.453,0.087,0.908,0.17,1.366,0.251c0.373,0.066,0.747,0.129,1.123,0.191c0.465,0.075,0.933,0.147,1.403,0.216
				c0.377,0.055,0.756,0.111,1.137,0.162c0.481,0.065,0.967,0.123,1.453,0.18c0.379,0.045,0.758,0.091,1.14,0.132
				c0.503,0.054,1.011,0.099,1.52,0.146c0.373,0.033,0.745,0.07,1.121,0.099c0.536,0.042,1.078,0.076,1.62,0.11
				c0.357,0.023,0.711,0.049,1.071,0.068c0.603,0.031,1.212,0.053,1.821,0.073c0.305,0.011,0.607,0.026,0.913,0.034
				c0.918,0.024,1.843,0.037,2.777,0.037c0.933,0,1.858-0.013,2.778-0.038c0.303-0.008,0.6-0.024,0.901-0.033
				c0.613-0.022,1.227-0.042,1.833-0.074c0.358-0.018,0.71-0.045,1.065-0.067c0.543-0.034,1.087-0.068,1.624-0.11
				c0.376-0.03,0.747-0.066,1.12-0.099c0.51-0.046,1.02-0.093,1.524-0.146c0.379-0.04,0.755-0.085,1.131-0.13
				c0.491-0.058,0.982-0.118,1.468-0.182c0.375-0.051,0.747-0.105,1.12-0.16c0.476-0.07,0.952-0.141,1.423-0.219
				c0.371-0.06,0.739-0.124,1.107-0.188c0.465-0.082,0.926-0.166,1.384-0.254c0.362-0.07,0.723-0.14,1.081-0.214
				c0.457-0.094,0.909-0.192,1.359-0.292c0.348-0.078,0.696-0.155,1.041-0.237c0.453-0.107,0.899-0.219,1.345-0.332
				c0.332-0.085,0.665-0.168,0.994-0.257c0.451-0.121,0.895-0.248,1.338-0.376c0.313-0.091,0.627-0.178,0.936-0.272
				c0.459-0.139,0.911-0.285,1.361-0.431c0.281-0.091,0.566-0.179,0.843-0.273c0.492-0.166,0.972-0.34,1.453-0.514
				c0.227-0.082,0.459-0.161,0.683-0.246c0.628-0.236,1.245-0.48,1.853-0.73c0.07-0.029,0.142-0.055,0.211-0.084
				c0.681-0.282,1.35-0.576,2.005-0.875c0.155-0.071,0.303-0.147,0.457-0.219c0.49-0.231,0.979-0.462,1.454-0.702
				c0.217-0.109,0.425-0.224,0.638-0.335c0.402-0.21,0.804-0.419,1.194-0.636c0.231-0.128,0.454-0.261,0.68-0.391
				c0.36-0.208,0.72-0.415,1.07-0.63c0.231-0.141,0.455-0.286,0.681-0.429c0.332-0.21,0.662-0.422,0.984-0.638
				c0.225-0.152,0.446-0.306,0.666-0.46c0.308-0.216,0.613-0.432,0.911-0.652c0.217-0.161,0.429-0.322,0.639-0.485
				c0.289-0.223,0.572-0.447,0.85-0.675c0.204-0.167,0.405-0.334,0.604-0.503c0.271-0.231,0.535-0.465,0.794-0.7
				c0.19-0.172,0.378-0.345,0.563-0.518c0.254-0.24,0.5-0.485,0.744-0.731c0.174-0.176,0.348-0.35,0.516-0.528
				c0.238-0.252,0.467-0.508,0.693-0.764c0.156-0.177,0.316-0.354,0.467-0.532c0.225-0.267,0.438-0.54,0.651-0.812
				c0.136-0.174,0.276-0.346,0.406-0.522c0.218-0.292,0.419-0.591,0.622-0.888c0.11-0.161,0.225-0.319,0.331-0.482
				c0.23-0.355,0.442-0.716,0.65-1.077c0.063-0.109,0.134-0.217,0.194-0.326c0.264-0.474,0.51-0.955,0.736-1.441
				c0.046-0.099,0.083-0.202,0.128-0.301c0.174-0.386,0.341-0.773,0.49-1.165c0.068-0.179,0.123-0.361,0.186-0.541
				c0.111-0.317,0.222-0.633,0.317-0.954c0.061-0.208,0.111-0.419,0.166-0.63c0.061-0.233,0.131-0.463,0.184-0.697h62.667
				c42.487,0,77.053,34.566,77.053,77.054v11.609c0,2.674-2.176,4.851-4.851,4.851H169.494c-4.466,0-8.084,3.619-8.084,8.084
				c0,4.466,3.618,8.084,8.084,8.084h276.027c11.59,0,21.019-9.429,21.019-21.019v-11.609
				C466.538,427.969,424.719,386.149,373.316,386.149z M381.009,168.824c9.258,4.263,15.684,13.684,15.684,24.344
				c0,10.659-6.426,20.08-15.684,24.343V168.824z M130.986,217.512c-9.258-4.263-15.685-13.684-15.685-24.343
				c0-10.66,6.427-20.081,15.685-24.344V217.512z M147.232,135.905c40.544,2.98,91.814-12.075,133.61-24.356
				c6.274-1.844,12.377-3.638,18.25-5.315c17.188-4.914,31.257-3.532,41.815,4.099c21.441,15.496,23.735,51.988,23.859,54.313
				v68.972c-4.026,13.337-15.52,41.572-40.62,41.572c-18.559,0-25.342-3.663-32.524-7.54c-7.619-4.113-16.254-8.776-35.623-8.776
				c-19.369,0-28.003,4.662-35.621,8.776c-7.182,3.877-13.965,7.54-32.524,7.54c-25.101,0-36.596-28.235-40.62-41.572V135.905z
				 M294.982,394.235v3.476c-0.004,0.082-0.007,0.165-0.008,0.248c-0.095,6.274-15.326,15.389-38.973,15.389
				c-23.648,0-38.881-9.115-38.976-15.39c-0.001-0.091-0.004-0.181-0.009-0.271v-3.454v-0.527l0.07,0.044
				c0.001,0.001,0.003,0.002,0.004,0.003c0.223,0.142,0.479,0.308,0.735,0.475c0.068,0.044,0.137,0.089,0.208,0.136
				c0.303,0.198,0.631,0.414,0.97,0.641c0.044,0.029,0.084,0.055,0.129,0.085c0.157,0.105,0.316,0.203,0.479,0.296
				c0.495,0.283,1.038,0.581,1.604,0.886c0.178,0.096,0.349,0.185,0.526,0.278c0.365,0.192,0.739,0.386,1.131,0.584
				c0.093,0.047,0.191,0.1,0.284,0.147l0.211,0.106c0.107,0.053,0.217,0.105,0.324,0.157c0.208,0.102,0.417,0.204,0.632,0.306
				c0.105,0.05,0.207,0.101,0.311,0.151l0.609,0.28c0.242,0.112,0.481,0.224,0.732,0.336l0.162,0.074
				c0.329,0.148,0.684,0.299,1.044,0.453c0.197,0.085,0.387,0.169,0.59,0.254c0.498,0.209,1.011,0.417,1.485,0.603
				c0.041,0.017,0.144,0.058,0.185,0.074c0.023,0.009,0.045,0.016,0.068,0.025c1.043,0.407,2.143,0.804,3.279,1.19
				c0.073,0.025,0.144,0.054,0.218,0.079c0.028,0.01,0.056,0.019,0.083,0.028c0.064,0.022,0.128,0.038,0.193,0.058
				c6.379,2.119,14.133,3.774,22.861,3.773c8.12-0.001,17.071-1.442,26.499-5.249c0.008-0.003,0.015-0.005,0.023-0.009
				c0.094-0.038,0.186-0.077,0.28-0.115c0.647-0.264,1.294-0.538,1.946-0.825c0.011-0.005,0.023-0.01,0.033-0.014
				c0.063-0.027,0.125-0.052,0.188-0.08c0.152-0.068,0.303-0.142,0.456-0.211c0.537-0.242,1.075-0.488,1.614-0.747
				c0.355-0.169,0.707-0.347,1.061-0.523c0.426-0.211,0.85-0.42,1.277-0.642c0.508-0.263,1.012-0.538,1.517-0.814
				c0.289-0.157,0.577-0.308,0.867-0.47c0.827-0.464,1.651-0.94,2.472-1.436c0.083-0.051,0.166-0.104,0.247-0.155l0.36-0.232
				V394.235z M309.929,364.087c-0.458,0.362-0.919,0.724-1.385,1.085c-0.316,0.246-0.633,0.49-0.953,0.735
				c-0.474,0.363-0.954,0.724-1.437,1.085c-0.32,0.239-0.639,0.479-0.963,0.717c-0.496,0.367-0.998,0.731-1.503,1.094
				c-0.32,0.231-0.638,0.462-0.961,0.692c-0.526,0.374-1.058,0.746-1.593,1.118c-0.312,0.217-0.619,0.433-0.933,0.649
				c-0.539,0.371-1.089,0.738-1.636,1.107c-2.143,1.437-4.179,2.746-6.214,4.002c-0.054,0.033-0.106,0.067-0.158,0.099
				c-0.387,0.213-0.78,0.447-1.172,0.676c-0.68,0.396-1.365,0.811-2.052,1.246c-0.222,0.14-0.443,0.272-0.665,0.416
				c-0.018,0.011-0.053,0.032-0.074,0.045c-0.003,0.002-0.008,0.004-0.011,0.005c-0.087,0.053-0.189,0.114-0.321,0.195
				c-0.013,0.008-0.026,0.015-0.039,0.023l-0.001,0.001c-0.026,0.016-0.066,0.041-0.093,0.057c-0.124,0.075-0.249,0.153-0.403,0.249
				c-0.064,0.04-0.134,0.084-0.202,0.126c-0.364,0.227-0.779,0.489-1.275,0.808c-0.758,0.456-1.511,0.885-2.264,1.3
				c-0.148,0.081-0.295,0.161-0.443,0.24c-0.663,0.359-1.324,0.704-1.982,1.031c-0.089,0.044-0.179,0.091-0.268,0.135
				c-14.328,7.046-27.439,6.822-37.462,4.493c-0.534-0.125-1.067-0.255-1.599-0.396c-0.425-0.111-0.84-0.227-1.251-0.346
				c-0.676-0.194-1.352-0.396-2.023-0.614c-0.158-0.052-0.313-0.105-0.469-0.157c-0.352-0.119-0.705-0.236-1.047-0.358
				c-0.252-0.089-0.496-0.182-0.742-0.273c-0.205-0.075-0.414-0.151-0.614-0.227c-0.041-0.016-0.085-0.031-0.126-0.047
				c-0.1-0.039-0.194-0.078-0.293-0.116c-0.318-0.125-0.631-0.25-0.936-0.375c-0.073-0.03-0.144-0.058-0.218-0.088
				c-0.152-0.064-0.297-0.127-0.446-0.19c-0.305-0.129-0.608-0.26-0.9-0.389c-0.138-0.061-0.272-0.123-0.406-0.184l-0.198-0.091
				c-0.234-0.107-0.467-0.215-0.691-0.32c-0.1-0.047-0.198-0.095-0.297-0.142c-0.094-0.045-0.186-0.091-0.277-0.135
				c-0.191-0.093-0.378-0.185-0.562-0.277c-0.841-0.42-1.671-0.859-2.472-1.312c-0.004-0.002-0.01-0.005-0.014-0.008
				c-0.16-0.107-0.305-0.202-0.457-0.302c-0.01-0.006-0.018-0.012-0.028-0.018c-0.176-0.116-0.354-0.234-0.52-0.343
				c-0.004-0.003-0.009-0.006-0.014-0.009l-0.094-0.06c-0.313-0.204-0.603-0.391-0.876-0.566c-0.027-0.017-0.083-0.053-0.123-0.079
				c-0.083-0.053-0.168-0.108-0.247-0.158l-0.088-0.057c-0.541-0.343-0.985-0.619-1.292-0.807L224.022,379
				c-0.038-0.024-0.073-0.044-0.107-0.065c-0.028-0.017-0.051-0.031-0.076-0.046c-0.181-0.11-0.297-0.179-0.323-0.194
				c-1.622-0.951-3.246-1.937-4.859-2.947c-0.107-0.067-0.216-0.133-0.321-0.199c-1.592-1-3.173-2.028-4.735-3.072
				c-0.384-0.258-0.771-0.513-1.151-0.772c-0.378-0.258-0.751-0.516-1.125-0.776c-0.49-0.338-0.98-0.678-1.462-1.019
				c-0.376-0.266-0.748-0.532-1.121-0.8c-0.471-0.338-0.941-0.677-1.404-1.016c-0.368-0.269-0.732-0.54-1.095-0.81
				c-0.459-0.342-0.915-0.683-1.367-1.027c-0.354-0.268-0.705-0.538-1.054-0.807c-0.453-0.349-0.901-0.698-1.345-1.05
				c-0.34-0.267-0.678-0.535-1.013-0.803c-0.455-0.343-0.893-0.699-1.33-1.055c-0.327-0.266-0.653-0.534-0.976-0.801
				c-0.437-0.362-0.868-0.725-1.298-1.089c-0.31-0.263-0.622-0.525-0.928-0.788c-0.438-0.376-0.868-0.752-1.298-1.13
				c-0.288-0.252-0.578-0.504-0.861-0.757c-0.448-0.399-0.888-0.799-1.327-1.199c-0.257-0.233-0.516-0.466-0.77-0.7
				c-0.481-0.443-0.953-0.888-1.423-1.333c-0.203-0.192-0.411-0.383-0.611-0.575c-0.637-0.609-1.265-1.219-1.884-1.83
				c-0.028-0.028-0.058-0.056-0.086-0.084c-0.658-0.65-1.304-1.301-1.941-1.954c-0.117-0.121-0.232-0.243-0.349-0.363
				c-0.509-0.524-1.013-1.049-1.509-1.575c-0.189-0.2-0.372-0.401-0.558-0.601c-0.415-0.445-0.83-0.891-1.236-1.338
				c-0.213-0.235-0.423-0.47-0.633-0.705c-0.372-0.414-0.743-0.828-1.107-1.242c-0.22-0.25-0.434-0.5-0.651-0.75
				c-0.347-0.401-0.694-0.801-1.034-1.203c-0.218-0.257-0.431-0.513-0.646-0.77c-0.331-0.396-0.661-0.792-0.985-1.189
				c-0.213-0.26-0.424-0.521-0.634-0.78c-0.317-0.392-0.631-0.784-0.94-1.176c-0.208-0.263-0.414-0.526-0.619-0.789
				c-0.306-0.393-0.609-0.786-0.91-1.179c-0.197-0.259-0.395-0.517-0.589-0.777c-0.299-0.398-0.594-0.794-0.886-1.192
				c-0.188-0.255-0.376-0.51-0.56-0.765c-0.294-0.404-0.583-0.81-0.87-1.214c-0.175-0.246-0.349-0.492-0.522-0.736
				c-0.294-0.419-0.582-0.839-0.869-1.257c-0.157-0.23-0.317-0.46-0.472-0.69c-0.3-0.443-0.594-0.887-0.886-1.33
				c-0.135-0.204-0.272-0.409-0.405-0.612c-0.322-0.495-0.638-0.988-0.951-1.482c-0.096-0.152-0.195-0.303-0.29-0.455
				c-0.397-0.631-0.786-1.259-1.166-1.887c-0.009-0.015-0.018-0.029-0.027-0.044c-0.794-1.31-1.555-2.614-2.286-3.912
				c-0.072-0.129-0.142-0.258-0.213-0.386c-0.285-0.51-0.567-1.019-0.842-1.527c-0.098-0.182-0.194-0.363-0.291-0.544
				c-0.244-0.453-0.485-0.906-0.72-1.357c-0.108-0.207-0.213-0.414-0.32-0.621c-0.219-0.425-0.437-0.849-0.649-1.272
				c-0.11-0.219-0.218-0.438-0.326-0.656c-0.204-0.41-0.405-0.819-0.603-1.228c-0.108-0.224-0.215-0.447-0.32-0.67
				c-0.192-0.402-0.382-0.803-0.567-1.203c-0.105-0.225-0.208-0.451-0.311-0.675c-0.181-0.395-0.359-0.788-0.535-1.181
				c-0.101-0.227-0.203-0.455-0.303-0.681c-0.171-0.389-0.34-0.777-0.506-1.165c-0.096-0.224-0.192-0.448-0.287-0.672
				c-0.166-0.392-0.329-0.784-0.489-1.175c-0.087-0.212-0.176-0.426-0.262-0.638c-0.163-0.402-0.322-0.803-0.48-1.203
				c-0.079-0.198-0.157-0.398-0.235-0.596c-0.161-0.413-0.317-0.823-0.471-1.233c-0.069-0.183-0.14-0.366-0.208-0.55
				c-0.165-0.442-0.324-0.882-0.483-1.32c-0.052-0.144-0.107-0.29-0.158-0.434c-0.188-0.525-0.37-1.047-0.549-1.566
				c-0.019-0.056-0.04-0.112-0.058-0.168c-0.401-1.173-0.778-2.329-1.134-3.471c-0.023-0.073-0.044-0.146-0.067-0.218
				c-0.15-0.484-0.297-0.966-0.44-1.444c-0.046-0.155-0.089-0.307-0.135-0.461c-0.116-0.396-0.232-0.791-0.343-1.182
				c-0.052-0.181-0.1-0.361-0.151-0.541c-0.1-0.359-0.199-0.717-0.295-1.071c-0.054-0.198-0.106-0.395-0.157-0.592
				c-0.088-0.334-0.177-0.668-0.261-0.999c-0.052-0.203-0.102-0.402-0.153-0.604c-0.081-0.323-0.162-0.646-0.239-0.965
				c-0.05-0.203-0.097-0.403-0.146-0.605c-0.074-0.31-0.147-0.619-0.218-0.926c-0.047-0.207-0.095-0.413-0.141-0.619
				c-0.067-0.295-0.131-0.589-0.195-0.881c-0.045-0.208-0.091-0.415-0.135-0.621c-0.061-0.289-0.122-0.576-0.18-0.861
				c-0.041-0.201-0.083-0.401-0.123-0.599c-0.057-0.286-0.112-0.568-0.167-0.85c-0.038-0.196-0.077-0.392-0.113-0.587
				c-0.052-0.274-0.101-0.543-0.15-0.813c-0.036-0.197-0.072-0.396-0.108-0.59c-0.047-0.266-0.092-0.527-0.137-0.789
				c-0.032-0.191-0.067-0.384-0.098-0.572c-0.044-0.267-0.086-0.529-0.127-0.791c-0.028-0.178-0.058-0.359-0.085-0.536
				c-0.043-0.281-0.084-0.557-0.125-0.834c-0.032-0.216-0.064-0.431-0.094-0.645c-0.05-0.346-0.097-0.69-0.142-1.028
				c-0.029-0.221-0.056-0.435-0.084-0.652c-0.024-0.184-0.049-0.371-0.07-0.552c-0.028-0.226-0.054-0.447-0.08-0.669
				c-0.016-0.14-0.033-0.281-0.05-0.419c8.923,11.42,21.801,20.777,40.045,20.777c22.644,0,31.975-5.037,40.205-9.482
				c6.793-3.666,12.658-6.834,27.94-6.834c15.284,0,21.149,3.167,27.941,6.835c8.232,4.444,17.561,9.481,40.207,9.481
				c18.242,0,31.119-9.353,40.043-20.775c-0.009,0.073-0.017,0.149-0.026,0.222c-0.031,0.268-0.063,0.539-0.097,0.814
				c-0.013,0.105-0.027,0.212-0.04,0.318c-0.036,0.281-0.071,0.564-0.11,0.853c-0.012,0.088-0.025,0.179-0.037,0.267
				c-0.042,0.31-0.084,0.621-0.13,0.938c-0.003,0.022-0.006,0.044-0.01,0.066c-0.159,1.108-0.342,2.259-0.549,3.451
				c-0.013,0.075-0.025,0.149-0.039,0.225c-0.052,0.295-0.107,0.597-0.162,0.897c-0.028,0.152-0.055,0.303-0.083,0.456
				c-0.051,0.275-0.106,0.554-0.16,0.833c-0.036,0.184-0.07,0.368-0.108,0.554c-0.053,0.269-0.11,0.543-0.165,0.817
				c-0.041,0.198-0.081,0.396-0.123,0.595c-0.056,0.271-0.115,0.543-0.175,0.817c-0.045,0.209-0.091,0.418-0.137,0.63
				c-0.06,0.271-0.122,0.544-0.184,0.818c-0.05,0.219-0.1,0.438-0.152,0.659c-0.063,0.269-0.127,0.541-0.193,0.814
				c-0.056,0.232-0.112,0.465-0.17,0.697c-0.066,0.269-0.134,0.539-0.203,0.811c-0.061,0.24-0.124,0.483-0.186,0.727
				c-0.07,0.269-0.14,0.539-0.212,0.811c-0.067,0.25-0.135,0.501-0.204,0.752c-0.074,0.272-0.148,0.543-0.224,0.818
				c-0.071,0.253-0.144,0.509-0.217,0.763c-0.079,0.276-0.157,0.551-0.238,0.829c-0.077,0.263-0.157,0.529-0.237,0.794
				c-0.082,0.274-0.163,0.545-0.247,0.821c-0.085,0.278-0.174,0.558-0.262,0.838c-0.084,0.267-0.166,0.534-0.252,0.803
				c-0.102,0.319-0.209,0.641-0.316,0.964c-0.081,0.245-0.158,0.488-0.241,0.734c-0.18,0.536-0.364,1.075-0.554,1.617
				c-0.077,0.219-0.157,0.44-0.235,0.659c-0.124,0.349-0.248,0.698-0.376,1.05c-0.091,0.248-0.185,0.498-0.278,0.747
				c-0.121,0.326-0.241,0.651-0.365,0.979c-0.098,0.259-0.201,0.52-0.302,0.78c-0.125,0.323-0.25,0.647-0.379,0.972
				c-0.105,0.263-0.211,0.527-0.318,0.791c-0.13,0.323-0.261,0.647-0.396,0.971c-0.111,0.269-0.225,0.54-0.338,0.811
				c-0.137,0.326-0.274,0.65-0.414,0.977c-0.115,0.269-0.234,0.54-0.352,0.812c-0.144,0.33-0.29,0.66-0.438,0.991
				c-0.121,0.271-0.244,0.541-0.367,0.813c-0.153,0.336-0.308,0.674-0.465,1.012c-0.124,0.267-0.249,0.536-0.376,0.804
				c-0.162,0.343-0.327,0.686-0.493,1.029c-0.13,0.269-0.26,0.538-0.392,0.808c-0.17,0.347-0.345,0.696-0.52,1.044
				c-0.133,0.265-0.265,0.529-0.4,0.794c-0.184,0.362-0.373,0.725-0.563,1.089c-0.133,0.255-0.264,0.51-0.399,0.765
				c-0.203,0.384-0.412,0.77-0.62,1.154c-0.127,0.236-0.253,0.471-0.383,0.708c-0.235,0.428-0.476,0.857-0.718,1.287
				c-0.11,0.196-0.218,0.391-0.329,0.588c-0.347,0.611-0.702,1.222-1.063,1.836c-0.009,0.014-0.016,0.029-0.025,0.043
				c-0.375,0.637-0.759,1.275-1.15,1.914c-0.082,0.134-0.167,0.268-0.25,0.402c-0.306,0.496-0.613,0.993-0.929,1.49
				c-0.135,0.212-0.274,0.425-0.41,0.637c-0.272,0.422-0.542,0.845-0.82,1.269c-0.155,0.236-0.315,0.473-0.472,0.709
				c-0.265,0.399-0.531,0.799-0.803,1.198c-0.17,0.25-0.344,0.5-0.515,0.749c-0.267,0.388-0.537,0.777-0.811,1.165
				c-0.182,0.258-0.366,0.516-0.551,0.774c-0.272,0.379-0.544,0.76-0.821,1.139c-0.192,0.263-0.387,0.527-0.582,0.79
				c-0.279,0.377-0.562,0.756-0.846,1.133c-0.199,0.264-0.4,0.527-0.602,0.791c-0.29,0.378-0.583,0.758-0.88,1.136
				c-0.205,0.262-0.411,0.525-0.62,0.787c-0.303,0.382-0.61,0.764-0.919,1.146c-0.208,0.257-0.415,0.513-0.626,0.77
				c-0.32,0.389-0.645,0.778-0.971,1.167c-0.21,0.251-0.419,0.501-0.633,0.752c-0.341,0.4-0.687,0.8-1.034,1.2
				c-0.206,0.237-0.41,0.474-0.618,0.71c-0.376,0.428-0.761,0.856-1.145,1.283c-0.188,0.208-0.371,0.416-0.56,0.623
				c-0.446,0.489-0.9,0.979-1.357,1.467c-0.136,0.146-0.268,0.291-0.404,0.435c-1.206,1.281-2.451,2.557-3.735,3.829
				c-0.122,0.121-0.248,0.24-0.37,0.361c-0.516,0.508-1.035,1.014-1.564,1.521c-0.204,0.195-0.413,0.389-0.619,0.584
				c-0.456,0.431-0.913,0.863-1.379,1.293c-0.239,0.221-0.484,0.442-0.725,0.662c-0.44,0.401-0.88,0.802-1.328,1.202
				c-0.266,0.238-0.537,0.474-0.806,0.711c-0.433,0.383-0.869,0.764-1.311,1.145c-0.284,0.245-0.572,0.489-0.859,0.733
				c-0.438,0.373-0.878,0.745-1.325,1.116c-0.295,0.247-0.595,0.493-0.894,0.738c-0.447,0.368-0.898,0.734-1.353,1.099
				C310.548,363.593,310.239,363.841,309.929,364.087z"/>
			<path d="M272.725,294.659h-33.456c-4.466,0-8.084,3.618-8.084,8.084c0,4.466,3.62,8.084,8.084,8.084h33.456
				c4.466,0,8.084-3.618,8.084-8.084C280.809,298.277,277.191,294.659,272.725,294.659z"/>
			<path d="M202.336,175.132c-13.162,0-23.869,10.708-23.869,23.868c0,13.161,10.708,23.869,23.869,23.869
				c13.16,0,23.868-10.708,23.868-23.869C226.203,185.839,215.496,175.132,202.336,175.132z M202.336,206.7
				c-4.246,0-7.7-3.454-7.7-7.7c0-4.246,3.455-7.699,7.7-7.699c4.246,0,7.699,3.454,7.699,7.699
				C210.035,203.247,206.581,206.7,202.336,206.7z"/>
			<path d="M309.662,175.132c-13.162,0-23.87,10.708-23.87,23.868c0,13.161,10.708,23.869,23.87,23.869
				c13.16,0,23.868-10.708,23.868-23.869C333.53,185.839,322.822,175.132,309.662,175.132z M309.662,206.7
				c-4.246,0-7.702-3.454-7.702-7.7c0-4.246,3.455-7.699,7.702-7.699c4.245,0,7.699,3.454,7.699,7.699
				C317.362,203.247,313.908,206.7,309.662,206.7z"/>
			<path d="M255.997,249.349c4.466,0,8.084-3.618,8.084-8.084v-21.747c0-4.466-3.618-8.084-8.084-8.084
				c-4.466,0-8.084,3.618-8.084,8.084v21.747C247.913,245.731,251.532,249.349,255.997,249.349z"/>
			<path d="M183.404,167.77c0.786-0.424,19.471-10.243,37.181,1.83c1.394,0.95,2.978,1.406,4.547,1.406
				c2.583,0,5.122-1.235,6.687-3.531c2.515-3.69,1.562-8.719-2.127-11.234c-26.066-17.767-52.944-3.266-54.076-2.639
				c-3.891,2.153-5.294,7.032-3.164,10.936C174.586,168.442,179.488,169.882,183.404,167.77z"/>
			<path d="M288.03,171.005c1.568,0,3.153-0.456,4.547-1.406c17.673-12.05,36.32-2.294,37.177-1.832
				c3.903,2.135,8.799,0.717,10.955-3.18c2.16-3.907,0.745-8.826-3.163-10.987c-1.133-0.625-28.013-15.125-54.077,2.64
				c-3.69,2.515-4.641,7.544-2.127,11.234C282.908,169.77,285.445,171.005,288.03,171.005z"/>
		</g>
	</g>
</g>
<g>
</g>
<g>
</g>
<g>
</g>
<g>
</g>
<g>
</g>
<g>
</g>
<g>
</g>
<g>
</g>
<g>
</g>
<g>
</g>
<g>
</g>
<g>
</g>
<g>
</g>
<g>
</g>
<g>
</g>
</svg>
